<svg width="55" height="55" viewBox="0 0 55 55" fill="none" xmlns="http://www.w3.org/2000/svg">
<path d="M27.5 24.8125C27.643 24.8125 27.7798 24.8696 27.8809 24.9707C27.982 25.0718 28.0391 25.2086 28.0391 25.3516V38.2422C28.0391 38.3852 27.982 38.522 27.8809 38.623C27.7798 38.7241 27.643 38.7812 27.5 38.7812C27.357 38.7812 27.2202 38.7241 27.1191 38.623C27.018 38.522 26.9609 38.3852 26.9609 38.2422V25.3516C26.9609 25.2086 27.018 25.0718 27.1191 24.9707C27.2202 24.8696 27.357 24.8125 27.5 24.8125ZM27.5 16.2188C27.7569 16.2188 28.0029 16.3213 28.1846 16.5029C28.3662 16.6846 28.4688 16.9306 28.4688 17.1875C28.4688 17.4444 28.3662 17.6904 28.1846 17.8721C28.0029 18.0537 27.7569 18.1562 27.5 18.1562C27.2431 18.1562 26.9971 18.0537 26.8154 17.8721C26.6338 17.6904 26.5312 17.4444 26.5312 17.1875C26.5312 16.9306 26.6338 16.6846 26.8154 16.5029C26.9971 16.3213 27.2431 16.2188 27.5 16.2188Z" fill="#B3B3B3" stroke="#F4F4FE" stroke-width="1.5"/>
<path d="M27.5 0.75C42.2795 0.75 54.25 12.7205 54.25 27.5C54.25 42.2795 42.2795 54.25 27.5 54.25C12.7205 54.25 0.75 42.2795 0.75 27.5C0.75 12.7205 12.7205 0.75 27.5 0.75ZM27.5 0.96875C12.8545 0.96875 0.96875 12.8545 0.96875 27.5C0.96875 42.1455 12.8545 54.0312 27.5 54.0312C42.1455 54.0312 54.0312 42.1455 54.0312 27.5C54.0312 12.8545 42.1455 0.96875 27.5 0.96875Z" fill="#B3B3B3" stroke="#F4F4FE" stroke-width="1.5"/>
</svg>
