<svg width="57" height="57" viewBox="0 0 57 57" fill="none" xmlns="http://www.w3.org/2000/svg">
<path d="M28.5 56C43.6878 56 56 43.6878 56 28.5C56 13.3122 43.6878 1 28.5 1C13.3122 1 1 13.3122 1 28.5C1 43.6878 13.3122 56 28.5 56Z" stroke="#F4F4FE" stroke-width="1.5" stroke-linecap="round" stroke-linejoin="round"/>
<path d="M32.7798 29.6824C39.9477 31.0331 42.9177 34.658 42.9177 34.658C44.1481 36.7902 42.9177 39.7231 42.9177 39.7231C38.7607 44.8982 32.4536 45.4418 28.468 45.4418C24.4837 45.4418 18.1766 44.8982 14.0197 39.7231C14.0197 39.7231 12.7892 36.7902 14.0197 34.658C14.0197 34.658 16.9897 31.0343 24.1576 29.6824" stroke="#F4F4FE" stroke-width="1.5" stroke-linecap="round" stroke-linejoin="round"/>
<path d="M28.468 31.0339C33.1586 31.0339 36.961 26.6674 36.961 21.281C36.961 15.8946 33.1586 11.5281 28.468 11.5281C23.7774 11.5281 19.975 15.8946 19.975 21.281C19.975 26.6674 23.7774 31.0339 28.468 31.0339Z" stroke="#F4F4FE" stroke-width="1.5" stroke-linecap="round" stroke-linejoin="round"/>
</svg>
