<svg width="62" height="68" viewBox="0 0 62 68" fill="none" xmlns="http://www.w3.org/2000/svg">
<path d="M10.875 30.625C10.875 21.3162 10.875 16.6585 13.7684 13.7684C16.6585 10.875 21.3162 10.875 30.625 10.875H40.5C49.8088 10.875 54.4665 10.875 57.3566 13.7684C60.25 16.6585 60.25 21.3162 60.25 30.625V47.0833C60.25 56.3922 60.25 61.0499 57.3566 63.94C54.4665 66.8333 49.8088 66.8333 40.5 66.8333H30.625C21.3162 66.8333 16.6585 66.8333 13.7684 63.94C10.875 61.0499 10.875 56.3922 10.875 47.0833V30.625Z" stroke="black" stroke-width="2"/>
<path d="M10.875 56.9583C8.25599 56.9583 5.74424 55.9179 3.89232 54.066C2.0404 52.2141 1 49.7023 1 47.0833V27.3333C1 14.9205 1 8.71237 4.85783 4.85783C8.71567 1.00329 14.9205 1 27.3333 1H40.5C43.119 1 45.6308 2.0404 47.4827 3.89232C49.3346 5.74424 50.375 8.25599 50.375 10.875" stroke="black" stroke-width="2"/>
</svg>
