<svg width="76" height="76" viewBox="0 0 76 76" fill="none" xmlns="http://www.w3.org/2000/svg">
<path d="M23.3006 12.9L14.3423 17.9167L19.359 8.95833L14.3423 0L23.3006 5.01667L32.259 0L27.2423 8.95833L32.259 17.9167L23.3006 12.9ZM66.3006 48.0167L75.259 43L70.2423 51.9583L75.259 60.9167L66.3006 55.9L57.3423 60.9167L62.359 51.9583L57.3423 43L66.3006 48.0167ZM75.259 0L70.2423 8.95833L75.259 17.9167L66.3006 12.9L57.3423 17.9167L62.359 8.95833L57.3423 0L66.3006 5.01667L75.259 0ZM44.2273 38.6283L52.9706 29.885L45.374 22.2883L36.6306 31.0317L44.2273 38.6283ZM47.9181 18.9558L56.3031 27.3408C57.7006 28.6667 57.7006 30.9958 56.3031 32.3933L14.4856 74.2108C13.0881 75.6083 10.759 75.6083 9.43313 74.2108L1.04812 65.8258C-0.349375 64.5 -0.349375 62.1708 1.04812 60.7733L42.8656 18.9558C44.2631 17.5583 46.5923 17.5583 47.9181 18.9558Z" fill="black"/>
</svg>
