<svg width="91" height="91" viewBox="0 0 91 91" fill="none" xmlns="http://www.w3.org/2000/svg">
<path d="M45.3438 89.6875C69.8341 89.6875 89.6875 69.8341 89.6875 45.3438C89.6875 20.8534 69.8341 1 45.3438 1C20.8534 1 1 20.8534 1 45.3438C1 69.8341 20.8534 89.6875 45.3438 89.6875Z" stroke="white" stroke-width="2" stroke-linecap="round" stroke-linejoin="round"/>
<path d="M50.6712 15.2725H40.0163C39.4693 15.2725 38.9447 15.4898 38.5579 15.8766C38.1711 16.2633 37.9538 16.788 37.9538 17.335V29.71L42.6831 34.4393C42.8749 34.6308 43.027 34.8583 43.1308 35.1087C43.2346 35.3591 43.288 35.6274 43.288 35.8985C43.288 36.1695 43.2346 36.4379 43.1308 36.6883C43.027 36.9387 42.8749 37.1662 42.6831 37.3577L37.9538 42.087V73.3525C37.9538 73.8995 38.1711 74.4241 38.5579 74.8109C38.9447 75.1977 39.4693 75.415 40.0163 75.415H50.6712C51.2182 75.415 51.7428 75.1977 52.1296 74.8109C52.5164 74.4241 52.7337 73.8995 52.7337 73.3525V60.9775L48.0044 56.2481C47.8126 56.0566 47.6605 55.8291 47.5567 55.5787C47.4529 55.3284 47.3995 55.06 47.3995 54.7889C47.3995 54.5179 47.4529 54.2495 47.5567 53.9991C47.6605 53.7487 47.8126 53.5213 48.0044 53.3297L52.7337 48.6025V17.335C52.7337 16.788 52.5164 16.2633 52.1296 15.8766C51.7428 15.4898 51.2182 15.2725 50.6712 15.2725Z" stroke="white" stroke-width="2" stroke-linecap="round" stroke-linejoin="round"/>
</svg>
